<mxfile host="app.diagrams.net" modified="2022-07-04T11:12:24.810Z" agent="5.0 (X11; Linux x86_64) AppleWebKit/537.36 (KHTML, like Gecko) Chrome/102.0.0.0 Safari/537.36" etag="5gYYbUxATtZl69ofOKmI" version="20.0.1" type="github">
  <diagram id="gwcwZJkgrbql8AhfcwBx" name="Page-1">
    <mxGraphModel dx="1640" dy="474" grid="1" gridSize="10" guides="1" tooltips="1" connect="1" arrows="1" fold="1" page="1" pageScale="1" pageWidth="827" pageHeight="1169" math="0" shadow="0">
      <root>
        <mxCell id="0" />
        <mxCell id="1" parent="0" />
        <mxCell id="YtkrxEah_gJbC1A0kzZA-3" style="edgeStyle=orthogonalEdgeStyle;rounded=0;orthogonalLoop=1;jettySize=auto;html=1;entryX=0.5;entryY=0;entryDx=0;entryDy=0;fontSize=18;" edge="1" parent="1" source="YtkrxEah_gJbC1A0kzZA-1" target="YtkrxEah_gJbC1A0kzZA-2">
          <mxGeometry relative="1" as="geometry" />
        </mxCell>
        <mxCell id="YtkrxEah_gJbC1A0kzZA-4" value="请求" style="edgeLabel;html=1;align=center;verticalAlign=middle;resizable=0;points=[];fontSize=18;" vertex="1" connectable="0" parent="YtkrxEah_gJbC1A0kzZA-3">
          <mxGeometry x="-0.2609" y="-3" relative="1" as="geometry">
            <mxPoint as="offset" />
          </mxGeometry>
        </mxCell>
        <mxCell id="YtkrxEah_gJbC1A0kzZA-1" value="&lt;font style=&quot;font-size: 18px;&quot;&gt;用户&lt;/font&gt;" style="ellipse;whiteSpace=wrap;html=1;" vertex="1" parent="1">
          <mxGeometry x="220" y="10" width="120" height="80" as="geometry" />
        </mxCell>
        <mxCell id="YtkrxEah_gJbC1A0kzZA-2" value="服务器" style="whiteSpace=wrap;html=1;aspect=fixed;fontSize=18;" vertex="1" parent="1">
          <mxGeometry x="205" y="150" width="150" height="150" as="geometry" />
        </mxCell>
        <mxCell id="YtkrxEah_gJbC1A0kzZA-5" value="" style="triangle;whiteSpace=wrap;html=1;fontSize=18;rotation=-90;" vertex="1" parent="1">
          <mxGeometry x="250" y="290" width="60" height="80" as="geometry" />
        </mxCell>
        <mxCell id="YtkrxEah_gJbC1A0kzZA-8" style="edgeStyle=orthogonalEdgeStyle;rounded=0;orthogonalLoop=1;jettySize=auto;html=1;entryX=0.5;entryY=0;entryDx=0;entryDy=0;fontSize=18;" edge="1" parent="1" source="YtkrxEah_gJbC1A0kzZA-6" target="YtkrxEah_gJbC1A0kzZA-7">
          <mxGeometry relative="1" as="geometry" />
        </mxCell>
        <mxCell id="YtkrxEah_gJbC1A0kzZA-6" value="DispatcherServlet&lt;br&gt;捕获&lt;br&gt;&lt;br&gt;解析URL" style="rounded=0;whiteSpace=wrap;html=1;fontSize=18;" vertex="1" parent="1">
          <mxGeometry x="185" y="390" width="195" height="130" as="geometry" />
        </mxCell>
        <mxCell id="YtkrxEah_gJbC1A0kzZA-12" style="edgeStyle=orthogonalEdgeStyle;rounded=0;orthogonalLoop=1;jettySize=auto;html=1;entryX=0.5;entryY=0;entryDx=0;entryDy=0;fontSize=18;exitX=0;exitY=0.5;exitDx=0;exitDy=0;" edge="1" parent="1" source="YtkrxEah_gJbC1A0kzZA-7" target="YtkrxEah_gJbC1A0kzZA-14">
          <mxGeometry relative="1" as="geometry">
            <mxPoint x="100" y="730" as="targetPoint" />
          </mxGeometry>
        </mxCell>
        <mxCell id="YtkrxEah_gJbC1A0kzZA-13" value="&lt;span style=&quot;background-color: rgb(248, 249, 250);&quot;&gt;不存在&lt;/span&gt;" style="edgeLabel;html=1;align=center;verticalAlign=middle;resizable=0;points=[];fontSize=18;" vertex="1" connectable="0" parent="YtkrxEah_gJbC1A0kzZA-12">
          <mxGeometry x="0.2028" y="-1" relative="1" as="geometry">
            <mxPoint as="offset" />
          </mxGeometry>
        </mxCell>
        <mxCell id="YtkrxEah_gJbC1A0kzZA-27" style="edgeStyle=orthogonalEdgeStyle;rounded=0;orthogonalLoop=1;jettySize=auto;html=1;entryX=0.5;entryY=0;entryDx=0;entryDy=0;fontSize=18;exitX=1;exitY=0.5;exitDx=0;exitDy=0;" edge="1" parent="1" source="YtkrxEah_gJbC1A0kzZA-7" target="YtkrxEah_gJbC1A0kzZA-26">
          <mxGeometry relative="1" as="geometry" />
        </mxCell>
        <mxCell id="YtkrxEah_gJbC1A0kzZA-28" value="存在" style="edgeLabel;html=1;align=center;verticalAlign=middle;resizable=0;points=[];fontSize=18;" vertex="1" connectable="0" parent="YtkrxEah_gJbC1A0kzZA-27">
          <mxGeometry x="0.1337" y="1" relative="1" as="geometry">
            <mxPoint x="-1" y="19" as="offset" />
          </mxGeometry>
        </mxCell>
        <mxCell id="YtkrxEah_gJbC1A0kzZA-7" value="判断URI对应的映射" style="rhombus;whiteSpace=wrap;html=1;fontSize=18;" vertex="1" parent="1">
          <mxGeometry x="183.13" y="560" width="198.75" height="180" as="geometry" />
        </mxCell>
        <mxCell id="YtkrxEah_gJbC1A0kzZA-16" style="edgeStyle=orthogonalEdgeStyle;rounded=0;orthogonalLoop=1;jettySize=auto;html=1;entryX=0.5;entryY=0;entryDx=0;entryDy=0;fontSize=18;" edge="1" parent="1" source="YtkrxEah_gJbC1A0kzZA-14" target="YtkrxEah_gJbC1A0kzZA-15">
          <mxGeometry relative="1" as="geometry" />
        </mxCell>
        <mxCell id="YtkrxEah_gJbC1A0kzZA-17" value="未配置" style="edgeLabel;html=1;align=center;verticalAlign=middle;resizable=0;points=[];fontSize=18;" vertex="1" connectable="0" parent="YtkrxEah_gJbC1A0kzZA-16">
          <mxGeometry x="0.1343" y="1" relative="1" as="geometry">
            <mxPoint as="offset" />
          </mxGeometry>
        </mxCell>
        <mxCell id="YtkrxEah_gJbC1A0kzZA-19" style="edgeStyle=orthogonalEdgeStyle;rounded=0;orthogonalLoop=1;jettySize=auto;html=1;entryX=0.5;entryY=0;entryDx=0;entryDy=0;fontSize=18;" edge="1" parent="1" source="YtkrxEah_gJbC1A0kzZA-14" target="YtkrxEah_gJbC1A0kzZA-18">
          <mxGeometry relative="1" as="geometry" />
        </mxCell>
        <mxCell id="YtkrxEah_gJbC1A0kzZA-20" value="配置" style="edgeLabel;html=1;align=center;verticalAlign=middle;resizable=0;points=[];fontSize=18;" vertex="1" connectable="0" parent="YtkrxEah_gJbC1A0kzZA-19">
          <mxGeometry x="-0.2458" y="1" relative="1" as="geometry">
            <mxPoint as="offset" />
          </mxGeometry>
        </mxCell>
        <mxCell id="YtkrxEah_gJbC1A0kzZA-14" value="是否存配置&lt;br&gt;mvc:default-servlet-handler" style="rhombus;whiteSpace=wrap;html=1;fontSize=18;" vertex="1" parent="1">
          <mxGeometry x="50" y="720" width="210" height="120" as="geometry" />
        </mxCell>
        <mxCell id="YtkrxEah_gJbC1A0kzZA-15" value="404" style="rounded=0;whiteSpace=wrap;html=1;fontSize=18;" vertex="1" parent="1">
          <mxGeometry x="-40" y="1040" width="70" height="100" as="geometry" />
        </mxCell>
        <mxCell id="YtkrxEah_gJbC1A0kzZA-21" style="edgeStyle=orthogonalEdgeStyle;rounded=0;orthogonalLoop=1;jettySize=auto;html=1;exitX=0;exitY=0.5;exitDx=0;exitDy=0;entryX=0.5;entryY=0;entryDx=0;entryDy=0;fontSize=18;" edge="1" parent="1" source="YtkrxEah_gJbC1A0kzZA-18" target="YtkrxEah_gJbC1A0kzZA-15">
          <mxGeometry relative="1" as="geometry" />
        </mxCell>
        <mxCell id="YtkrxEah_gJbC1A0kzZA-24" value="未找到" style="edgeLabel;html=1;align=center;verticalAlign=middle;resizable=0;points=[];fontSize=18;" vertex="1" connectable="0" parent="YtkrxEah_gJbC1A0kzZA-21">
          <mxGeometry x="-0.5014" y="1" relative="1" as="geometry">
            <mxPoint as="offset" />
          </mxGeometry>
        </mxCell>
        <mxCell id="YtkrxEah_gJbC1A0kzZA-23" style="edgeStyle=orthogonalEdgeStyle;rounded=0;orthogonalLoop=1;jettySize=auto;html=1;entryX=0.5;entryY=0;entryDx=0;entryDy=0;fontSize=18;" edge="1" parent="1" source="YtkrxEah_gJbC1A0kzZA-18" target="YtkrxEah_gJbC1A0kzZA-22">
          <mxGeometry relative="1" as="geometry" />
        </mxCell>
        <mxCell id="YtkrxEah_gJbC1A0kzZA-25" value="找到" style="edgeLabel;html=1;align=center;verticalAlign=middle;resizable=0;points=[];fontSize=18;" vertex="1" connectable="0" parent="YtkrxEah_gJbC1A0kzZA-23">
          <mxGeometry x="-0.7483" y="-1" relative="1" as="geometry">
            <mxPoint x="1" y="6" as="offset" />
          </mxGeometry>
        </mxCell>
        <mxCell id="YtkrxEah_gJbC1A0kzZA-18" value="default-servlet查找资源" style="rhombus;whiteSpace=wrap;html=1;fontSize=18;" vertex="1" parent="1">
          <mxGeometry x="43.75" y="900" width="222.5" height="130" as="geometry" />
        </mxCell>
        <mxCell id="YtkrxEah_gJbC1A0kzZA-22" value="访问资源" style="rounded=0;whiteSpace=wrap;html=1;fontSize=18;" vertex="1" parent="1">
          <mxGeometry x="102.5" y="1060" width="105" height="80" as="geometry" />
        </mxCell>
        <mxCell id="YtkrxEah_gJbC1A0kzZA-30" style="edgeStyle=orthogonalEdgeStyle;rounded=0;orthogonalLoop=1;jettySize=auto;html=1;entryX=0.5;entryY=0;entryDx=0;entryDy=0;fontSize=18;" edge="1" parent="1" source="YtkrxEah_gJbC1A0kzZA-26" target="YtkrxEah_gJbC1A0kzZA-29">
          <mxGeometry relative="1" as="geometry" />
        </mxCell>
        <mxCell id="YtkrxEah_gJbC1A0kzZA-26" value="&lt;span style=&quot;color: rgb(52, 73, 94); font-family: &amp;quot;Source Sans Pro&amp;quot;, &amp;quot;Helvetica Neue&amp;quot;, Arial, sans-serif; text-align: left; word-spacing: 0.8px; background-color: rgb(255, 255, 255);&quot;&gt;&lt;font style=&quot;font-size: 18px;&quot;&gt;HandlerMapping&lt;/font&gt;&lt;/span&gt;" style="rounded=0;whiteSpace=wrap;html=1;fontSize=18;" vertex="1" parent="1">
          <mxGeometry x="360" y="735" width="170" height="90" as="geometry" />
        </mxCell>
        <mxCell id="YtkrxEah_gJbC1A0kzZA-29" value="&lt;span style=&quot;color: rgb(52, 73, 94); font-family: &amp;quot;Source Sans Pro&amp;quot;, &amp;quot;Helvetica Neue&amp;quot;, Arial, sans-serif; text-align: left; word-spacing: 0.8px; background-color: rgb(255, 255, 255);&quot;&gt;&lt;font style=&quot;font-size: 18px;&quot;&gt;......&lt;/font&gt;&lt;/span&gt;" style="rounded=0;whiteSpace=wrap;html=1;fontSize=18;" vertex="1" parent="1">
          <mxGeometry x="360" y="890" width="170" height="90" as="geometry" />
        </mxCell>
      </root>
    </mxGraphModel>
  </diagram>
</mxfile>
